<?xml version="1.0" encoding="UTF-8"?>
<svg width="221px" height="51px" viewBox="0 0 221 51" version="1.1" xmlns="http://www.w3.org/2000/svg" xmlns:xlink="http://www.w3.org/1999/xlink">
    <title>Apollon Logo</title>
    <defs>
        <polygon id="path-1" points="0 0.00131736527 50.2516008 0.00131736527 50.2516008 50.0598363 0 50.0598363"></polygon>
        <polygon id="path-3" points="0.181576846 0.103457086 148.285269 0.103457086 148.285269 24.7294052 0.181576846 24.7294052"></polygon>
        <polygon id="path-5" points="0 50.0585629 219.862116 50.0585629 219.862116 0 0 0"></polygon>
    </defs>
    <g id="Web" stroke="none" stroke-width="1" fill="none" fill-rule="evenodd">
        <g id="Home" transform="translate(-40.000000, -30.000000)">
            <g id="Apollon-Logo" transform="translate(40.000000, 30.000000)">
                <g id="Group-3" transform="translate(0.000000, -0.001317)">
                    <mask id="mask-2" fill="white">
                        <use xlink:href="#path-1"></use>
                    </mask>
                    <g id="Clip-2"></g>
                    <path d="M25.0293253,0.00127345309 C37.7397046,0.00127345309 48.2373493,9.47664271 49.8445349,21.7483393 C48.1095649,10.6218723 38.4857725,2.10817964 26.8723194,2.10817964 C14.0310818,2.10817964 3.09519361,12.528978 3.62126148,25.3596766 C4.50038323,46.8041876 32.605493,57.3633094 44.2593453,33.5264631 C34.0638164,36.3667026 26.8872495,23.7538084 15.5583473,37.3318922 C19.0129182,40.620475 25.3169501,39.7536487 35.4501238,37.8935289 C21.1141158,49.755525 6.05619162,38.3344072 5.96134132,25.1616327 L50.2516008,25.1616327 C49.1103234,39.5433094 39.4215409,50.0598363 25.0293253,50.0598363 C11.2062116,50.0598363 -0.000175648703,38.8538882 -0.000175648703,25.0307745 C-0.000175648703,11.2076607 11.2062116,0.00127345309 25.0293253,0.00127345309" id="Fill-1" fill="#78C67D" mask="url(#mask-2)"></path>
                </g>
                <path d="M39.4774411,8.92286627 L39.8744072,9.13364471 C41.0762834,9.77388423 41.6089381,11.3217884 40.8966826,12.4806307 L33.7381198,24.1278962 L29.3271417,24.1278962 L36.1308942,9.94426347 C36.7197565,8.71735729 38.276004,8.28350499 39.4774411,8.92286627" id="Fill-4" fill="#78C67D"></path>
                <g id="Group-8" transform="translate(71.576846, 5.268144)">
                    <mask id="mask-4" fill="white">
                        <use xlink:href="#path-3"></use>
                    </mask>
                    <g id="Clip-7"></g>
                    <path d="M49.0171856,12.3843752 C49.0171856,8.21623154 51.9672056,4.30365669 56.7127944,4.30365669 C61.55499,4.30365669 64.3767864,8.47223952 64.3767864,12.448487 C64.3767864,16.3606228 61.55499,20.5287665 56.7452894,20.5287665 C52.1279242,20.5287665 49.0171856,16.7452934 49.0171856,12.4164311 L49.0171856,12.3843752 Z M44.2395409,12.6408224 C44.2395409,18.9896447 49.3702395,24.7294052 56.6486826,24.7294052 C63.895509,24.7294052 69.153992,19.149485 69.153992,12.415992 C69.153992,5.68337725 63.8634531,0.103457086 56.6807385,0.103457086 C50.0754691,0.103457086 44.2395409,5.00932535 44.2395409,12.6087665 L44.2395409,12.6408224 Z M15.156507,15.8152335 L8.32640719,15.8152335 L11.6931537,6.19583234 L15.156507,15.8152335 Z M30.5797804,4.75331737 L33.2092415,4.75331737 C34.3953094,4.75331737 35.4856487,4.84904591 36.4473253,5.36194012 C37.3773852,5.81116168 38.0830539,6.80489421 38.0830539,8.3123992 C38.0830539,9.81902595 37.3773852,10.8773094 36.5114371,11.3265309 C35.5497605,11.838986 34.491477,11.9355928 33.4011377,11.9355928 L30.5797804,11.9355928 L30.5797804,4.75331737 Z M25.8021357,0.552239521 L25.8021357,24.2806228 L30.5797804,24.2806228 L30.5797804,16.1362315 L33.4977445,16.1362315 C36.9606587,16.1362315 38.5638922,15.5592255 40.1675649,14.2440559 C41.6741916,13.025493 42.6683633,10.5888064 42.6683633,8.2478483 C42.6683633,5.90732934 41.7066866,3.59886627 39.9747904,2.18752894 C38.5963872,1.12968463 36.9922754,0.552239521 32.9844112,0.552239521 L25.8021357,0.552239521 Z M72.6818962,24.2806228 L85.2508782,24.2806228 L85.2508782,20.0804232 L77.4591018,20.0804232 L77.4591018,0.552239521 L72.6818962,0.552239521 L72.6818962,24.2806228 Z M87.7841717,24.2806228 L87.7841717,0.552239521 L92.5618164,0.552239521 L92.5618164,20.0804232 L100.353593,20.0804232 L100.353593,24.2806228 L87.7841717,24.2806228 Z M105.067126,12.3843752 C105.067126,8.21623154 108.016707,4.30409581 112.762735,4.30409581 C117.604491,4.30409581 120.426287,8.47223952 120.426287,12.448487 C120.426287,16.3606228 117.604491,20.5287665 112.79479,20.5287665 C108.177864,20.5287665 105.067126,16.7452934 105.067126,12.4164311 L105.067126,12.3843752 Z M100.289481,12.6408224 C100.289481,18.9896447 105.419741,24.7294052 112.699062,24.7294052 C119.945449,24.7294052 125.203932,19.1499242 125.203932,12.4164311 C125.203932,5.68293812 119.912954,0.103457086 112.730679,0.103457086 C106.125409,0.103457086 100.289481,5.00932535 100.289481,12.6087665 L100.289481,12.6408224 Z M132.910519,0.552239521 L128.640499,0.552239521 L128.640499,24.2806228 L133.231078,24.2806228 L133.13491,7.86317764 L144.047525,24.2806228 L148.285489,24.2806228 L148.285489,0.552239521 L143.69491,0.552239521 L143.791078,17.0021796 L132.910519,0.552239521 Z M7.07578842,19.6312016 L16.4391816,19.6312016 L18.1706387,24.2806228 L23.3966267,24.2806228 L14.0020559,0.552239521 L9.80097804,0.552239521 L0.181576846,24.2806228 L5.3759481,24.2806228 L7.07578842,19.6312016 Z" id="Fill-6" fill="#78C67D" mask="url(#mask-4)"></path>
                </g>
                <mask id="mask-6" fill="white">
                    <use xlink:href="#path-5"></use>
                </mask>
                <g id="Clip-10"></g>
                <polygon id="Fill-9" fill="#78C67D" mask="url(#mask-6)" points="60.9637126 49.3405988 61.7378842 49.3405988 61.7378842 0.718403194 60.9637126 0.718403194"></polygon>
                <polygon id="Fill-11" fill="#78C67D" mask="url(#mask-6)" points="71.7580279 34.918523 75.8844551 34.918523 75.8844551 35.7199202 72.6582275 35.7199202 72.6582275 38.5733333 75.8629381 38.5733333 75.8629381 39.3857086 72.6582275 39.3857086 72.6582275 43.040519 71.7580279 43.040519"></polygon>
                <path d="M85.381517,38.979521 C85.381517,40.8892615 86.8192016,42.3818363 88.7184032,42.3818363 C90.6391218,42.3818363 92.0438723,40.8343713 92.0438723,38.979521 C92.0438723,37.1246707 90.6391218,35.5767665 88.706986,35.5767665 C86.7976846,35.5767665 85.381517,37.0917365 85.381517,38.9685429 L85.381517,38.979521 Z M84.4707784,39.001477 C84.4707784,36.4989222 86.4134531,34.7758084 88.706986,34.7758084 C91.0887824,34.7758084 92.9440719,36.5977246 92.9440719,38.979521 C92.9440719,41.3608782 91.0997605,43.1827944 88.706986,43.1827944 C86.3036727,43.1827944 84.4707784,41.3283832 84.4707784,39.0124551 L84.4707784,39.001477 Z" id="Fill-12" fill="#78C67D" mask="url(#mask-6)"></path>
                <path d="M101.87089,34.918523 L103.988774,34.918523 C105.262228,34.918523 105.854603,35.0722156 106.271768,35.3356886 C106.930451,35.7308982 107.380551,36.5977246 107.380551,37.5198802 C107.39109,38.0683433 107.237836,38.6501796 106.897517,39.1112575 C106.414922,39.769501 105.832647,39.9231936 105.086579,40.0000399 L107.1061,43.040519 L106.118515,43.040519 L103.824104,39.4950499 L104.088016,39.4950499 C104.658874,39.4950499 105.448415,39.4840719 105.887537,39.0783234 C106.315681,38.6611577 106.502307,38.1671457 106.502307,37.5857485 C106.502307,36.9819561 106.2059,36.3456687 105.701349,36.0163273 C105.295162,35.7528543 104.790172,35.7199202 104.055082,35.7199202 L102.781629,35.7199202 L102.781629,43.040519 L101.87089,43.040519 L101.87089,34.918523 Z" id="Fill-13" fill="#78C67D" mask="url(#mask-6)"></path>
                <polygon id="Fill-14" fill="#78C67D" mask="url(#mask-6)" points="116.141908 43.0403433 116.141908 34.9183473 117.414922 34.9183473 120.422467 41.7343952 123.418595 34.9183473 124.691609 34.9183473 124.691609 43.0403433 123.83576 43.0403433 123.857277 35.8185469 120.707457 43.0403433 120.125621 43.0403433 116.964822 35.8185469 116.987218 43.0403433"></polygon>
                <path d="M134.9581,34.918523 L134.9581,40.0659082 C134.9581,40.6806786 134.9581,41.1527345 135.342331,41.7011976 C135.627321,42.1073852 136.165246,42.3818363 136.75806,42.3818363 C137.339896,42.3818363 137.877381,42.1183633 138.151832,41.7121756 C138.536064,41.1746906 138.536064,40.7026347 138.536064,40.0659082 L138.536064,34.918523 L139.435824,34.918523 L139.435824,40.0659082 C139.447242,41.01002 139.326044,41.9427146 138.514108,42.5684631 C138.064008,42.9522555 137.460216,43.1827944 136.75806,43.1827944 C136.187641,43.1827944 135.474068,43.0185629 134.969078,42.5684631 C134.11279,41.8768463 134.047361,40.9551297 134.047361,40.0659082 L134.047361,34.918523 L134.9581,34.918523 Z" id="Fill-15" fill="#78C67D" mask="url(#mask-6)"></path>
                <polygon id="Fill-16" fill="#78C67D" mask="url(#mask-6)" points="148.812743 34.918523 149.723481 34.918523 149.723481 42.2391218 152.818411 42.2391218 152.818411 43.040519 148.812743 43.040519"></polygon>
                <path d="M164.498918,35.9393493 L162.885585,40.0108862 L166.12323,40.0108862 L164.498918,35.9393493 Z M161.678439,43.0403872 L160.701832,43.0403872 L164.092731,34.9183912 L164.970974,34.9183912 L168.329377,43.0403872 L167.341792,43.0403872 L166.397681,40.7573932 L162.611134,40.7573932 L161.678439,43.0403872 Z" id="Fill-17" fill="#78C67D" mask="url(#mask-6)"></path>
                <path d="M176.905381,34.918523 L179.023265,34.918523 C180.296719,34.918523 180.889094,35.0722156 181.306259,35.3356886 C181.964503,35.7308982 182.415042,36.5977246 182.415042,37.5198802 C182.425581,38.0683433 182.272327,38.6501796 181.932008,39.1112575 C181.449413,39.769501 180.867138,39.9231936 180.12107,40.0000399 L182.140591,43.040519 L181.153006,43.040519 L178.858595,39.4950499 L179.122507,39.4950499 C179.693365,39.4950499 180.482906,39.4840719 180.922028,39.0783234 C181.350172,38.6611577 181.536798,38.1671457 181.536798,37.5857485 C181.536798,36.9819561 181.240391,36.3456687 180.73584,36.0163273 C180.329653,35.7528543 179.824663,35.7199202 179.089573,35.7199202 L177.81612,35.7199202 L177.81612,43.040519 L176.905381,43.040519 L176.905381,34.918523 Z" id="Fill-18" fill="#78C67D" mask="url(#mask-6)"></path>
                <polygon id="Fill-19" fill="#78C67D" mask="url(#mask-6)" points="191.176487 43.040519 192.076687 43.040519 192.076687 34.918523 191.176487 34.918523"></polygon>
                <polygon id="Fill-20" fill="#78C67D" mask="url(#mask-6)" points="201.462739 34.918523 205.962419 34.918523 205.962419 35.7199202 202.362938 35.7199202 202.362938 38.5403992 205.940463 38.5403992 205.940463 39.3417964 202.362938 39.3417964 202.362938 42.2391218 205.962419 42.2391218 205.962419 43.040519 201.462739 43.040519"></polygon>
                <path d="M215.668196,40.7793493 C215.799932,42.1292096 216.787517,42.4146387 217.292507,42.4146387 C218.137377,42.4146387 218.916818,41.7673733 218.916818,40.8671737 C218.916818,39.7258962 217.940212,39.4734012 216.9961,39.166016 C216.337417,38.9684112 214.921689,38.5512455 214.921689,37.0147585 C214.899733,35.5770739 216.096339,34.7761158 217.336419,34.7761158 C218.346399,34.7761158 219.509633,35.3355569 219.641369,36.872483 L218.74117,36.872483 C218.642367,36.3455369 218.379333,35.5441397 217.303485,35.5441397 C216.49111,35.5441397 215.821888,36.0930419 215.821888,36.9379122 C215.81091,37.9259361 216.611868,38.1674531 217.84097,38.5841796 C218.609433,38.8805868 219.816579,39.3087305 219.816579,40.8013054 C219.816579,42.1292096 218.818016,43.1831018 217.303485,43.1831018 C215.942647,43.1831018 214.812347,42.3268144 214.757457,40.7793493 L215.668196,40.7793493 Z" id="Fill-21" fill="#78C67D" mask="url(#mask-6)"></path>
            </g>
        </g>
    </g>
</svg>