<?xml version="1.0" encoding="UTF-8"?>
<svg width="545px" height="256px" viewBox="0 0 545 256" version="1.1" xmlns="http://www.w3.org/2000/svg" xmlns:xlink="http://www.w3.org/1999/xlink">
    <title>Group 4</title>
    <defs>
        <linearGradient x1="0%" y1="42.297802%" x2="100%" y2="57.702198%" id="linearGradient-1">
            <stop stop-color="#B0E5B4" offset="0%"></stop>
            <stop stop-color="#78C67D" offset="100%"></stop>
        </linearGradient>
    </defs>
    <g id="Web" stroke="none" stroke-width="1" fill="none" fill-rule="evenodd">
        <g id="Operations-/-Doc's-Place" transform="translate(-447.000000, -930.000000)">
            <g id="Group-5" transform="translate(353.000000, 775.000000)">
                <g id="Group-4" transform="translate(94.000000, 155.000000)">
                    <path d="M157.71876,79.9315748 C157.71876,79.9315748 160.302524,68.273502 172.703292,68.0154138 C185.105688,67.7556921 198.798338,70.8641848 198.798338,70.8641848 L216.883061,73.9661437 L239.10246,76.0455505 L250.470373,77.0811703 L270.363407,78.8943216 L278.888527,84.0756872 L280.955864,81.4850044 L295.16657,79.4137649 L303.434292,80.7091063 L314.543176,84.0756872 L316.610514,90.2926727 L321.002588,88.2214332 L329.011281,88.4795214 L332.886928,91.8477358 L336.762575,95.2143167 L345.030297,95.2143167 L349.163343,93.6608871 L355.106327,92.1074575 L358.463918,92.1074575 L359.755801,95.2143167 L363.372419,97.0291015 L373.966506,94.4384186 L381.199744,93.1430772 L391.534803,93.4027989 L389.726494,98.8422528 L390.242921,101.173214 C394.634995,104.023618 396.959731,105.059238 396.959731,105.059238 C399.802524,106.35458 404.194598,109.203351 404.194598,109.203351 L410.394982,115.939779 L410.394982,122.416487 L414.915756,125.524979 L432.484052,125.524979 L443.078139,136.532931 L455.866634,136.532931 L462.454745,140.289911 L473.822659,141.585253 L481.960051,141.585253 L482.994534,145.471277 L485.190572,145.471277 L492.29511,146.377853 L493.456664,147.803872 L499.270949,147.803872 L500.434132,150.004155 L503.791723,150.004155 L508.055097,151.947984 L510.120806,157.387438 C510.120806,157.387438 523.298657,169.821409 525.882422,182.257013 C528.466187,194.690984 531.823777,195.208794 531.823777,195.208794 L538.283189,202.203311 L545,205.571525 L543.450719,208.420296 L540.866954,208.420296 L529.499041,211.788511 L522.523202,216.192345 L516.580217,218.005496 L516.580217,215.674535 L517.614701,212.824131 L514.061617,212.824131 L508.50636,219.558926 L504.17945,219.558926 L498.495494,215.934257 L494.297283,215.414813 L491.972547,217.876452 L486.739853,219.171794 L481.766187,219.235499 L469.559284,219.558926 L464.391754,217.747408 L454.574752,217.747408 L451.215532,215.934257 L450.182678,209.197828 L446.307031,205.18276 L436.037136,202.008928 L428.566049,199.181392 L423.054777,201.598927 L412.719719,202.634547 L403.762885,201.598927 L406.175593,199.352906 L413.925258,199.87235 L420.98744,199.181392 L426.671396,197.799477 L423.914946,195.728237 L411.170437,195.208794 L408.930414,194.346322 L404.624683,190.200576 L402.040918,188.302484 L399.284468,188.647146 L397.735187,194.517836 L394.978737,198.145772 L390.329263,198.31892 L388.261926,209.544124 L387.229072,218.178644 L383.610824,223.015348 L380.16689,226.122207 L376.377586,226.122207 L373.277394,223.186862 L361.047683,222.495904 L358.292862,221.460285 L361.56411,220.596179 L361.56411,218.005496 L359.842143,216.796729 L356.225524,211.788511 L353.98713,211.097553 L351.35938,209.890419 L345.546724,209.890419 L342.446532,211.097553 L339.000969,211.443849 C339.000969,211.443849 331.938788,217.833982 331.595046,221.287137 C331.251304,224.740292 331.766102,228.541375 331.766102,228.541375 L332.6279,231.99453 L329.873079,232.858636 L327.116629,236.31179 L328.322169,238.040001 L323.327325,238.040001 L319.883391,238.902473 L320.399818,241.146861 L322.121785,242.184114 L323.50001,243.912325 L330.044136,243.912325 L333.145956,242.701924 L336.417205,243.046586 L336.58989,245.810416 L336.762575,248.227951 L338.1408,250.127677 L337.79543,252.891507 L334.006125,253.928761 L332.456844,256 L327.633056,256 L320.570875,252.373697 C320.570875,252.373697 294.907542,223.186862 273.549941,218.005496 C273.549941,218.005496 266.83313,219.215897 264.422051,221.287137 L260.114691,224.395629 C260.114691,224.395629 257.532555,223.706305 255.465217,223.36001 C253.39788,223.015348 249.781261,222.32439 249.781261,222.32439 L245.819271,220.596179 L212.57733,221.460285 C212.57733,221.460285 206.548003,219.905221 200.520304,216.625214 C194.490977,213.343574 188.635964,207.471251 188.80702,203.498652 C188.979706,199.527688 187.085054,199.87235 187.085054,199.87235 L182.952008,199.181392 L182.779322,184.328253 L177.268051,181.221393 L160.043496,181.046612 L156.770619,179.321668 L156.770619,173.449345 L154.188483,169.303599 L150.053808,164.640043 L148.675583,162.740318 L143.508054,162.000356 L142.131458,159.804973 L140.06412,148.57977 C140.06412,148.57977 136.791243,140.289911 131.279972,140.289911 L120.428486,141.843341 L111.471652,140.636207 L106.993235,139.254292 L101.310908,139.772101 L99.4146266,143.053742 L91.837647,140.636207 L83.0518696,137.699228 L78.7461381,136.490461 L73.0621816,136.490461 L69.7893043,132.517863 L67.3782251,130.619771 L66,126.647173 L67.5509105,124.229638 L72.2003836,119.73923 L72.5457545,109.203351 L75.1295192,104.195133 L79.2625652,101.777598 L82.3643861,99.7047247 L84.4300946,97.1156754 L88.219399,96.7693798 L90.8031637,92.7967816 L94.0760409,89.5167746 L95.6253223,86.2351341 L97.3489181,84.3354089 L101.481964,83.6444513 L105.960381,82.2625359 L107.682348,84.3354089 C109.405944,86.2351341 111.12791,86.5797962 111.12791,86.5797962 L113.022563,83.4713035 C113.022563,83.4713035 114.744529,82.4356837 115.777384,82.4356837 L119.050261,82.4356837 L122.66688,85.0263666 L132.829253,85.5441764 L136.274816,82.9534936 L146.609875,83.1266414 C146.609875,83.1266414 146.609875,85.1995144 149.193639,86.2351341 C151.775775,87.2707539 157.976159,85.1995144 157.71876,79.9315748" id="Fill-1" fill="url(#linearGradient-1)"></path>
                    <path d="M82,72 C73.7071429,72 67,78.573 67,86.7 C67,97.725 82,114 82,114 C82,114 97,97.725 97,86.7 C97,78.573 90.2928571,72 82,72 Z M82,91.95 C79.0428571,91.95 76.6428571,89.598 76.6428571,86.7 C76.6428571,83.802 79.0428571,81.45 82,81.45 C84.9571429,81.45 87.3571429,83.802 87.3571429,86.7 C87.3571429,89.598 84.9571429,91.95 82,91.95 Z" id="icon/maps/place_24px" fill="#FC5000" fill-rule="nonzero"></path>
                    <path d="M430,148 C421.707143,148 415,154.573 415,162.7 C415,173.725 430,190 430,190 C430,190 445,173.725 445,162.7 C445,154.573 438.292857,148 430,148 Z M430,167.95 C427.042857,167.95 424.642857,165.598 424.642857,162.7 C424.642857,159.802 427.042857,157.45 430,157.45 C432.957143,157.45 435.357143,159.802 435.357143,162.7 C435.357143,165.598 432.957143,167.95 430,167.95 Z" id="icon/maps/place_24px" fill="#000000" fill-rule="nonzero"></path>



                </g>
            </g>
        </g>
    </g>
</svg>